<svg width="660" height="150" viewBox="0 0 660 150" fill="none" xmlns="http://www.w3.org/2000/svg">
<path d="M110.188 88.7809H12.8122C7.14978 88.7809 2.56281 84.1939 2.56281 78.5315V69.5621C2.56281 63.8997 7.14978 59.3127 12.8122 59.3127H110.188C115.85 59.3127 120.437 63.8997 120.437 69.5621V78.5315C120.437 84.1939 115.85 88.7809 110.188 88.7809Z" fill="#287094"/>
<path d="M110.188 120.813H12.8122C7.14978 120.813 2.56281 116.226 2.56281 110.562V100.312C2.56281 94.6497 7.14978 90.0627 12.8122 90.0627H110.188C115.85 90.0627 120.437 94.6497 120.437 100.312V110.562C120.437 116.226 115.85 120.813 110.188 120.813V120.813Z" fill="#023246"/>
<path d="M110.188 58.0309H12.8122C7.14978 58.0309 2.56281 53.4439 2.56281 47.7815V38.8121C2.56281 33.1497 7.14978 28.5627 12.8122 28.5627H110.188C115.85 28.5627 120.437 33.1497 120.437 38.8121V47.7815C120.437 53.4439 115.85 58.0309 110.188 58.0309Z" fill="#023246"/>
<path d="M25.6253 74.6877C25.6253 78.9331 22.1832 82.3752 17.9378 82.3752C13.6915 82.3752 10.2503 78.9331 10.2503 74.6877C10.2503 70.4414 13.6915 67.0002 17.9378 67.0002C22.1832 67.0002 25.6253 70.4414 25.6253 74.6877Z" fill="#FFCA00"/>
<path d="M25.6253 105.438C25.6253 109.683 22.1832 113.125 17.9378 113.125C13.6915 113.125 10.2503 109.683 10.2503 105.438C10.2503 101.191 13.6915 97.7502 17.9378 97.7502C22.1832 97.7502 25.6253 101.191 25.6253 105.438Z" fill="#FFCA00"/>
<path d="M25.6253 43.9377C25.6253 48.1831 22.1832 51.6252 17.9378 51.6252C13.6915 51.6252 10.2503 48.1831 10.2503 43.9377C10.2503 39.6914 13.6915 36.2502 17.9378 36.2502C22.1832 36.2502 25.6253 39.6914 25.6253 43.9377Z" fill="#FFCA00"/>
<path d="M110.188 92.6247H12.8122C5.74498 92.6247 0 86.8797 0 79.8125V69.5622C0 62.495 5.74498 56.75 12.8122 56.75H110.188C117.255 56.75 123 62.495 123 69.5622V79.8125C123 86.8797 117.255 92.6247 110.188 92.6247V92.6247ZM12.8122 61.8747C8.5743 61.8747 5.12469 65.3243 5.12469 69.5622V79.8125C5.12469 84.0513 8.5743 87.5 12.8122 87.5H110.188C114.426 87.5 117.875 84.0513 117.875 79.8125V69.5622C117.875 65.3243 114.426 61.8747 110.188 61.8747H12.8122Z" fill="black"/>
<path d="M17.9378 82.3752C13.699 82.3752 10.2503 78.9256 10.2503 74.6877C10.2503 70.4489 13.699 67.0002 17.9378 67.0002C22.1757 67.0002 25.6253 70.4489 25.6253 74.6877C25.6253 78.9256 22.1757 82.3752 17.9378 82.3752ZM17.9378 72.1249C16.5283 72.1249 15.375 73.2782 15.375 74.6877C15.375 76.0972 16.5283 77.2496 17.9378 77.2496C19.3473 77.2496 20.4997 76.0972 20.4997 74.6877C20.4997 73.2782 19.3473 72.1249 17.9378 72.1249Z" fill="black"/>
<path d="M97.3747 79.8126C97.3747 81.2277 96.2279 82.3754 94.8128 82.3754C93.3977 82.3754 92.25 81.2277 92.25 79.8126C92.25 78.3974 93.3977 77.2498 94.8128 77.2498C96.2279 77.2498 97.3747 78.3974 97.3747 79.8126Z" fill="black"/>
<path d="M87.1253 79.8126C87.1253 81.2277 85.9776 82.3754 84.5625 82.3754C83.1474 82.3754 81.9997 81.2277 81.9997 79.8126C81.9997 78.3974 83.1474 77.2498 84.5625 77.2498C85.9776 77.2498 87.1253 78.3974 87.1253 79.8126V79.8126Z" fill="black"/>
<path d="M107.625 79.8126C107.625 81.2277 106.477 82.3754 105.062 82.3754C103.647 82.3754 102.5 81.2277 102.5 79.8126C102.5 78.3974 103.647 77.2498 105.062 77.2498C106.477 77.2498 107.625 78.3974 107.625 79.8126Z" fill="black"/>
<path d="M110.188 123.375H12.8122C5.74498 123.375 0 117.63 0 110.562V100.312C0 93.245 5.74498 87.5 12.8122 87.5H110.188C117.255 87.5 123 93.245 123 100.312V110.562C123 117.63 117.255 123.375 110.188 123.375V123.375ZM12.8122 92.6247C8.5743 92.6247 5.12469 96.0743 5.12469 100.312V110.562C5.12469 114.801 8.5743 118.25 12.8122 118.25H110.188C114.426 118.25 117.875 114.801 117.875 110.562V100.312C117.875 96.0743 114.426 92.6247 110.188 92.6247H12.8122Z" fill="black"/>
<path d="M17.9378 113.125C13.699 113.125 10.2503 109.676 10.2503 105.438C10.2503 101.199 13.699 97.7502 17.9378 97.7502C22.1757 97.7502 25.6253 101.199 25.6253 105.438C25.6253 109.676 22.1757 113.125 17.9378 113.125ZM17.9378 102.875C16.5283 102.875 15.375 104.028 15.375 105.438C15.375 106.847 16.5283 108 17.9378 108C19.3473 108 20.4997 106.847 20.4997 105.438C20.4997 104.028 19.3473 102.875 17.9378 102.875Z" fill="black"/>
<path d="M97.3747 110.563C97.3747 111.978 96.2279 113.125 94.8128 113.125C93.3977 113.125 92.25 111.978 92.25 110.563C92.25 109.147 93.3977 108 94.8128 108C96.2279 108 97.3747 109.147 97.3747 110.563Z" fill="black"/>
<path d="M87.1253 110.563C87.1253 111.978 85.9776 113.125 84.5625 113.125C83.1474 113.125 81.9997 111.978 81.9997 110.563C81.9997 109.147 83.1474 108 84.5625 108C85.9776 108 87.1253 109.147 87.1253 110.563V110.563Z" fill="black"/>
<path d="M76.875 110.563C76.875 111.978 75.7273 113.125 74.3122 113.125C72.897 113.125 71.7503 111.978 71.7503 110.563C71.7503 109.147 72.897 108 74.3122 108C75.7273 108 76.875 109.147 76.875 110.563Z" fill="black"/>
<path d="M107.625 110.563C107.625 111.978 106.477 113.125 105.062 113.125C103.647 113.125 102.5 111.978 102.5 110.563C102.5 109.147 103.647 108 105.062 108C106.477 108 107.625 109.147 107.625 110.563Z" fill="black"/>
<path d="M110.188 61.8747H12.8122C5.74498 61.8747 0 56.1297 0 49.0625V38.8122C0 31.745 5.74498 26 12.8122 26H110.188C117.255 26 123 31.745 123 38.8122V49.0625C123 56.1297 117.255 61.8747 110.188 61.8747V61.8747ZM12.8122 31.1247C8.5743 31.1247 5.12469 34.5743 5.12469 38.8122V49.0625C5.12469 53.3013 8.5743 56.75 12.8122 56.75H110.188C114.426 56.75 117.875 53.3013 117.875 49.0625V38.8122C117.875 34.5743 114.426 31.1247 110.188 31.1247H12.8122Z" fill="black"/>
<path d="M17.9378 51.6252C13.699 51.6252 10.2503 48.1756 10.2503 43.9377C10.2503 39.6989 13.699 36.2502 17.9378 36.2502C22.1757 36.2502 25.6253 39.6989 25.6253 43.9377C25.6253 48.1756 22.1757 51.6252 17.9378 51.6252ZM17.9378 41.3749C16.5283 41.3749 15.375 42.5282 15.375 43.9377C15.375 45.3472 16.5283 46.4996 17.9378 46.4996C19.3473 46.4996 20.4997 45.3472 20.4997 43.9377C20.4997 42.5282 19.3473 41.3749 17.9378 41.3749Z" fill="black"/>
<path d="M97.3747 49.0626C97.3747 50.4777 96.2279 51.6254 94.8128 51.6254C93.3977 51.6254 92.25 50.4777 92.25 49.0626C92.25 47.6474 93.3977 46.4998 94.8128 46.4998C96.2279 46.4998 97.3747 47.6474 97.3747 49.0626Z" fill="black"/>
<path d="M87.1253 49.0626C87.1253 50.4777 85.9776 51.6254 84.5625 51.6254C83.1474 51.6254 81.9997 50.4777 81.9997 49.0626C81.9997 47.6474 83.1474 46.4998 84.5625 46.4998C85.9776 46.4998 87.1253 47.6474 87.1253 49.0626V49.0626Z" fill="black"/>
<path d="M76.875 49.0626C76.875 50.4777 75.7273 51.6254 74.3122 51.6254C72.897 51.6254 71.7503 50.4777 71.7503 49.0626C71.7503 47.6474 72.897 46.4998 74.3122 46.4998C75.7273 46.4998 76.875 47.6474 76.875 49.0626Z" fill="black"/>
<path d="M107.625 49.0626C107.625 50.4777 106.477 51.6254 105.062 51.6254C103.647 51.6254 102.5 50.4777 102.5 49.0626C102.5 47.6474 103.647 46.4998 105.062 46.4998C106.477 46.4998 107.625 47.6474 107.625 49.0626Z" fill="black"/>
<path d="M76.875 79.8126C76.875 81.2277 75.7273 82.3754 74.3122 82.3754C72.897 82.3754 71.7503 81.2277 71.7503 79.8126C71.7503 78.3974 72.897 77.2498 74.3122 77.2498C75.7273 77.2498 76.875 78.3974 76.875 79.8126Z" fill="black"/>
<path d="M192.8 61.8C192.8 65.5333 191.9 69.0333 190.1 72.3C188.367 75.5667 185.6 78.2 181.8 80.2C178.067 82.2 173.333 83.2 167.6 83.2H155.9V110H141.9V40.2H167.6C173 40.2 177.6 41.1333 181.4 43C185.2 44.8667 188.033 47.4333 189.9 50.7C191.833 53.9667 192.8 57.6667 192.8 61.8ZM167 71.9C170.867 71.9 173.733 71.0333 175.6 69.3C177.467 67.5 178.4 65 178.4 61.8C178.4 55 174.6 51.6 167 51.6H155.9V71.9H167ZM216.74 63.2C218.54 60.2667 220.873 57.9667 223.74 56.3C226.673 54.6333 230.007 53.8 233.74 53.8V68.5H230.04C225.64 68.5 222.307 69.5333 220.04 71.6C217.84 73.6667 216.74 77.2667 216.74 82.4V110H202.74V54.6H216.74V63.2ZM267.77 110.9C262.436 110.9 257.636 109.733 253.37 107.4C249.103 105 245.736 101.633 243.27 97.3C240.87 92.9667 239.67 87.9667 239.67 82.3C239.67 76.6333 240.903 71.6333 243.37 67.3C245.903 62.9667 249.336 59.6333 253.67 57.3C258.003 54.9 262.836 53.7 268.17 53.7C273.503 53.7 278.336 54.9 282.67 57.3C287.003 59.6333 290.403 62.9667 292.87 67.3C295.403 71.6333 296.67 76.6333 296.67 82.3C296.67 87.9667 295.37 92.9667 292.77 97.3C290.236 101.633 286.77 105 282.37 107.4C278.036 109.733 273.17 110.9 267.77 110.9ZM267.77 98.7C270.303 98.7 272.67 98.1 274.87 96.9C277.136 95.6333 278.936 93.7667 280.27 91.3C281.603 88.8333 282.27 85.8333 282.27 82.3C282.27 77.0333 280.87 73 278.07 70.2C275.336 67.3333 271.97 65.9 267.97 65.9C263.97 65.9 260.603 67.3333 257.87 70.2C255.203 73 253.87 77.0333 253.87 82.3C253.87 87.5667 255.17 91.6333 257.77 94.5C260.436 97.3 263.77 98.7 267.77 98.7ZM337.539 110L326.139 92.8L316.039 110H301.039L319.139 82.2L300.839 54.6H316.639L327.939 71.7L338.139 54.6H353.139L334.939 82.2L353.339 110H337.539ZM413.943 54.6L379.643 136.2H364.743L376.743 108.6L354.543 54.6H370.243L384.543 93.3L399.043 54.6H413.943Z" fill="#FFCA00"/>
<path d="M445.59 110.7C440.723 110.7 436.323 109.867 432.39 108.2C428.523 106.533 425.457 104.133 423.19 101C420.923 97.8667 419.757 94.1667 419.69 89.9H434.69C434.89 92.7667 435.89 95.0333 437.69 96.7C439.557 98.3667 442.09 99.2 445.29 99.2C448.557 99.2 451.123 98.4333 452.99 96.9C454.857 95.3 455.79 93.2333 455.79 90.7C455.79 88.6333 455.157 86.9333 453.89 85.6C452.623 84.2667 451.023 83.2333 449.09 82.5C447.223 81.7 444.623 80.8333 441.29 79.9C436.757 78.5667 433.057 77.2667 430.19 76C427.39 74.6667 424.957 72.7 422.89 70.1C420.89 67.4333 419.89 63.9 419.89 59.5C419.89 55.3667 420.923 51.7667 422.99 48.7C425.057 45.6333 427.957 43.3 431.69 41.7C435.423 40.0333 439.69 39.2 444.49 39.2C451.69 39.2 457.523 40.9667 461.99 44.5C466.523 47.9667 469.023 52.8333 469.49 59.1H454.09C453.957 56.7 452.923 54.7333 450.99 53.2C449.123 51.6 446.623 50.8 443.49 50.8C440.757 50.8 438.557 51.5 436.89 52.9C435.29 54.3 434.49 56.3333 434.49 59C434.49 60.8667 435.09 62.4333 436.29 63.7C437.557 64.9 439.09 65.9 440.89 66.7C442.757 67.4333 445.357 68.3 448.69 69.3C453.223 70.6333 456.923 71.9667 459.79 73.3C462.657 74.6333 465.123 76.6333 467.19 79.3C469.257 81.9667 470.29 85.4667 470.29 89.8C470.29 93.5333 469.323 97 467.39 100.2C465.457 103.4 462.623 105.967 458.89 107.9C455.157 109.767 450.723 110.7 445.59 110.7ZM513.627 53.8C517.827 53.8 521.561 54.7333 524.827 56.6C528.094 58.4 530.627 61.1 532.427 64.7C534.294 68.2333 535.227 72.5 535.227 77.5V110H521.227V79.4C521.227 75 520.127 71.6333 517.927 69.3C515.727 66.9 512.727 65.7 508.927 65.7C505.061 65.7 501.994 66.9 499.727 69.3C497.527 71.6333 496.427 75 496.427 79.4V110H482.427V36H496.427V61.5C498.227 59.1 500.627 57.2333 503.627 55.9C506.627 54.5 509.961 53.8 513.627 53.8ZM600.041 81.1C600.041 83.1 599.907 84.9 599.641 86.5H559.141C559.474 90.5 560.874 93.6333 563.341 95.9C565.807 98.1667 568.841 99.3 572.441 99.3C577.641 99.3 581.341 97.0667 583.541 92.6H598.641C597.041 97.9333 593.974 102.333 589.441 105.8C584.907 109.2 579.341 110.9 572.741 110.9C567.407 110.9 562.607 109.733 558.341 107.4C554.141 105 550.841 101.633 548.441 97.3C546.107 92.9667 544.941 87.9667 544.941 82.3C544.941 76.5667 546.107 71.5333 548.441 67.2C550.774 62.8667 554.041 59.5333 558.241 57.2C562.441 54.8667 567.274 53.7 572.741 53.7C578.007 53.7 582.707 54.8333 586.841 57.1C591.041 59.3667 594.274 62.6 596.541 66.8C598.874 70.9333 600.041 75.7 600.041 81.1ZM585.541 77.1C585.474 73.5 584.174 70.6333 581.641 68.5C579.107 66.3 576.007 65.2 572.341 65.2C568.874 65.2 565.941 66.2667 563.541 68.4C561.207 70.4667 559.774 73.3667 559.241 77.1H585.541ZM624.259 36V110H610.259V36H624.259ZM652.091 36V110H638.091V36H652.091Z" fill="#023246"/>
</svg>
